# xmcd CD database file
#
# Track frame offsets:
#	150
#	17470
#	32325
#	46002
#	60975
#	73142
#	85655
#	98955
#	112022
#	122892
#	138575
#	156677
#	171080
#	186685
#
# Disc length: 2800 seconds
#
# Revision: 0
# Processed by: cddbd v1.5PL3 Copyright (c) Steve Scherf et al.
# Submitted via: CDex 1.51
#
DISCID=c00aee0e
DTITLE=John Williams and The Boston Pops - Big Bands Favorites
DYEAR=1900
DGENRE=Jazz
TTITLE0=Moonlight Serenade
TTITLE1=Bigin the Beguine
TTITLE2=St. Louis Blues
TTITLE3=Opus One
TTITLE4=Stompin' at the Savoy
TTITLE5=Sleepy Lagoon
TTITLE6=Sunrise Serenade
TTITLE7=Tuxedo Junction
TTITLE8=Satin Doll
TTITLE9=In the Mood
TTITLE10=Sing, Sing, Sing
TTITLE11=A String of Pearls
TTITLE12=Song of India
TTITLE13=South Rampart Street Parade
EXTD=
EXTT0=
EXTT1=
EXTT2=
EXTT3=
EXTT4=
EXTT5=
EXTT6=
EXTT7=
EXTT8=
EXTT9=
EXTT10=
EXTT11=
EXTT12=
EXTT13=
PLAYORDER=
